<svg version="1.1" viewBox="0.0 0.0 100.0 100.0" fill="none" stroke="none" stroke-linecap="square" stroke-miterlimit="10" xmlns:xlink="http://www.w3.org/1999/xlink" xmlns="http://www.w3.org/2000/svg"><clipPath id="p.0"><path d="m0 0l100.0 0l0 100.0l-100.0 0l0 -100.0z" clip-rule="nonzero"/></clipPath><g clip-path="url(#p.0)"><path fill="#000000" fill-opacity="0.0" d="m0 0l100.0 0l0 100.0l-100.0 0z" fill-rule="evenodd"/><path fill="#8f84c3" d="m0.011943832 16.671637l0 0c0 -9.205145 7.462244 -16.667389 16.667389 -16.667389l66.66756 0l0 0c4.4204636 0 8.659882 1.7560234 11.785622 4.8817654c3.12574 3.1257415 4.8817673 7.3651567 4.8817673 11.785624l0 66.66755c0 9.205147 -7.462242 16.667389 -16.667389 16.667389l-66.66756 0c-9.205145 0 -16.667389 -7.462242 -16.667389 -16.667389z" fill-rule="evenodd"/><path fill="#ffffff" d="m75.48313 78.72365l-12.02264 -5.246933l0 0c-14.336353 5.849823 -31.59478 1.5544052 -39.871235 -9.923481c-8.276452 -11.477882 -4.8623085 -26.381878 7.887518 -34.43191c12.749826 -8.050034 30.662718 -6.6115837 41.3832 3.3231773c10.7204895 9.934757 10.740089 25.114494 0.045295715 35.068935z" fill-rule="evenodd"/></g></svg>